<svg id="Layer_1" data-name="Layer 1" xmlns="http://www.w3.org/2000/svg" viewBox="0 0 336.51 448.78"><defs><style>.cls-1{font-size:60.38px;font-family:AmericanTypewriter, American Typewriter;}.cls-1,.cls-3{fill:#231f20;}.cls-2{letter-spacing:0.02em;}.cls-3{font-size:24px;font-family:PTSans-Caption, PT Sans Caption;}</style></defs><path d="M351.82,403.78V340.93c0,.91-20.82-.27-30-2.53-10.64-2.62-19.93-6.92-29.5-11.88-5.87-3-10-6.78-15.35-10.52A63.67,63.67,0,0,1,262,301.19c-3.6-4.9-7.44-9.83-10.33-15.14-3.72-6.84-5.92-14.3-7.93-21.72-1.25-4.65-1.49-9.38-1.94-14.14-.82-8.66-.32-17.28-.31-26V189.3c0-4,.37-8,0-12-.84-9.1-.84-18.58,8.86-25.39a60,60,0,0,1,7-4.73,51.9,51.9,0,0,1,13.93-5.12c10.1-1.88,21.91-1.71,31.59,1.89a44.31,44.31,0,0,1,7.77,3.7C318,152.27,325,158.16,325.9,167a186.14,186.14,0,0,1,.44,20.58c-.07,6.78-.45,13.56-.81,20.33-.2,3.75-.4,7.5-.53,11.25a306.93,306.93,0,0,0,.28,32,81.34,81.34,0,0,0,1.1,9.07,38.08,38.08,0,0,0,7.23,17,20.34,20.34,0,0,0,4.77,4.38c.6.39,9.55,4.77,9.77,3.7.46-2.18,0-4.78,0-7,0-2.58-.07-5.16-.11-7.74l-.21-15.44-.3-21.41q-.12-8.3-.23-16.6L347,200.17q-.12-8-.22-15.95-.1-6.65-.19-13.27-.08-5.2-.14-10.41l-.12-8.48s-.71-58.38-.71-58.5c0-1.69,1.13-4,1.66-5.58a46.16,46.16,0,0,1,2.07-5.3,37,37,0,0,1,6.16-9.15C363.16,65.15,373.78,59,385,55.87a84,84,0,0,1,9.68-2.14,95.2,95.2,0,0,1,28.25-.28q3.93.57,7.77,1.5c8.71,2.13,17.06,5.07,24.29,10.23,8.06,5.76,15,13.94,17.85,23.21,2.26,7.34,1.55,15.72,1.46,23.29-.07,4.93.06,9.85,0,14.78-.05,5.76.05,11.52,0,17.28,0,6.17,0,12.34,0,18.5s0,12.27,0,18.4c0,5.67,0,11.33,0,17,0,4.75,0,9.51,0,14.26,0,3.41,0,6.82,0,10.23,0,1.61,0,3.23,0,4.85v.23c0-.33,3.69-1.41,4.05-1.56a20.59,20.59,0,0,0,5.42-3.31c7-5.94,5.37-16.44,5.36-24.67,0-5.39-.05-10.67-.06-16.07,0-5.77.16-11.55.19-17.32,0-5.34-.44-10.69-.32-16a14.91,14.91,0,0,1,2.17-8c2.61-4,7.11-6.62,11.49-8.59a65,65,0,0,1,15.52-5,69,69,0,0,1,9.41-1c10.08-.32,20.34.27,29.88,3.57,4.74,1.64,9.63,3.46,13.32,6.84s6.14,5.78,6,12.27c-.12,6,.26,12.23.23,18.23,0,6.71-.09,13.41-.08,20.12a104.15,104.15,0,0,1-1,15.58,91.39,91.39,0,0,1-6.85,24.51c-3.56,7.78-7.64,15.63-13.14,22.37a92.21,92.21,0,0,1-16,15.65,118.67,118.67,0,0,1-27.14,15.19q-4,1.6-8.19,2.9a176.37,176.37,0,0,1-28.59,5.85l-4.48.58-.35,111.9.35,2.49Z" transform="translate(-241.18 -52.53)"/><text class="cls-1" transform="translate(0 413.04) scale(0.97 1)">Del desie<tspan class="cls-2" x="257.98" y="0">r</tspan><tspan x="288.77" y="0">to</tspan></text><text class="cls-3" transform="translate(69.31 442.76)">Sabor Sonorense</text></svg>